<mxfile host="Electron" agent="Mozilla/5.0 (Windows NT 10.0; Win64; x64) AppleWebKit/537.36 (KHTML, like Gecko) draw.io/25.0.1 Chrome/128.0.6613.186 Electron/32.2.6 Safari/537.36" version="25.0.1">
  <diagram name="Page-1" id="sml87yRHOmGASyp5fPqJ">
    <mxGraphModel dx="3450" dy="2148" grid="1" gridSize="10" guides="1" tooltips="1" connect="1" arrows="1" fold="1" page="1" pageScale="1" pageWidth="850" pageHeight="1100" math="0" shadow="0">
      <root>
        <mxCell id="0" />
        <mxCell id="1" parent="0" />
        <mxCell id="6mCqm3cFqYDMlTNCP-HP-35" value="" style="rounded=0;whiteSpace=wrap;html=1;" vertex="1" parent="1">
          <mxGeometry x="-1410" y="-380" width="2100" height="960" as="geometry" />
        </mxCell>
        <mxCell id="6mCqm3cFqYDMlTNCP-HP-8" value="" style="rounded=0;whiteSpace=wrap;html=1;" vertex="1" parent="1">
          <mxGeometry x="-710" y="50" width="790" height="200" as="geometry" />
        </mxCell>
        <mxCell id="0-2StcnEYoLJdeBP_UcM-1" value="" style="shape=image;verticalLabelPosition=bottom;labelBackgroundColor=default;verticalAlign=top;aspect=fixed;imageAspect=0;image=https://www.svgrepo.com/show/375422/datastream.svg;" parent="1" vertex="1">
          <mxGeometry x="-1230" y="-310" width="110" height="110" as="geometry" />
        </mxCell>
        <mxCell id="0-2StcnEYoLJdeBP_UcM-2" value="&lt;font style=&quot;font-size: 18px;&quot;&gt;&lt;i&gt;&lt;b&gt;Eventsim&lt;/b&gt;&lt;/i&gt;&lt;/font&gt;" style="text;html=1;align=center;verticalAlign=middle;whiteSpace=wrap;rounded=0;" parent="1" vertex="1">
          <mxGeometry x="-1220" y="-200" width="60" height="30" as="geometry" />
        </mxCell>
        <mxCell id="0-2StcnEYoLJdeBP_UcM-5" value="" style="endArrow=classic;html=1;rounded=0;strokeWidth=2;" parent="1" edge="1">
          <mxGeometry width="50" height="50" relative="1" as="geometry">
            <mxPoint x="-1110" y="-255.62" as="sourcePoint" />
            <mxPoint x="-960" y="-255.31" as="targetPoint" />
          </mxGeometry>
        </mxCell>
        <mxCell id="0-2StcnEYoLJdeBP_UcM-14" value="" style="rounded=0;whiteSpace=wrap;html=1;" parent="1" vertex="1">
          <mxGeometry x="-710" y="260" width="790" height="90" as="geometry" />
        </mxCell>
        <mxCell id="0-2StcnEYoLJdeBP_UcM-25" value="&lt;span style=&quot;font-size: 18px;&quot;&gt;&lt;b&gt;Lakehouse&lt;/b&gt;&lt;/span&gt;" style="text;html=1;align=center;verticalAlign=middle;whiteSpace=wrap;rounded=0;" parent="1" vertex="1">
          <mxGeometry x="-710" y="260" width="110" height="30" as="geometry" />
        </mxCell>
        <mxCell id="0-2StcnEYoLJdeBP_UcM-27" value="" style="rounded=0;whiteSpace=wrap;html=1;fillColor=#dae8fc;strokeColor=#6c8ebf;" parent="1" vertex="1">
          <mxGeometry x="-710" y="-50" width="790" height="80" as="geometry" />
        </mxCell>
        <mxCell id="0-2StcnEYoLJdeBP_UcM-29" value="" style="shape=image;verticalLabelPosition=bottom;labelBackgroundColor=default;verticalAlign=top;aspect=fixed;imageAspect=0;image=https://upload.wikimedia.org/wikipedia/commons/thumb/d/de/AirflowLogo.png/1200px-AirflowLogo.png;" parent="1" vertex="1">
          <mxGeometry x="-392.59" y="-40" width="155.18" height="60" as="geometry" />
        </mxCell>
        <mxCell id="0-2StcnEYoLJdeBP_UcM-30" value="&lt;span style=&quot;font-size: 18px;&quot;&gt;&lt;b&gt;Data Orchestration&lt;/b&gt;&lt;/span&gt;" style="text;html=1;align=center;verticalAlign=middle;whiteSpace=wrap;rounded=0;" parent="1" vertex="1">
          <mxGeometry x="-710" y="-50" width="180" height="30" as="geometry" />
        </mxCell>
        <mxCell id="0-2StcnEYoLJdeBP_UcM-31" value="" style="rounded=0;whiteSpace=wrap;html=1;fillColor=#fff2cc;strokeColor=#d6b656;" parent="1" vertex="1">
          <mxGeometry x="-960" y="370" width="1040" height="80" as="geometry" />
        </mxCell>
        <mxCell id="0-2StcnEYoLJdeBP_UcM-32" value="" style="shape=image;verticalLabelPosition=bottom;labelBackgroundColor=default;verticalAlign=top;aspect=fixed;imageAspect=0;image=https://logos-world.net/wp-content/uploads/2021/02/Docker-Logo.png;" parent="1" vertex="1">
          <mxGeometry x="-617.2200000000001" y="358.75" width="182.22" height="102.5" as="geometry" />
        </mxCell>
        <mxCell id="0-2StcnEYoLJdeBP_UcM-34" value="&lt;span style=&quot;font-size: 18px;&quot;&gt;&lt;b&gt;Deploy and Monitor&lt;/b&gt;&lt;/span&gt;" style="text;html=1;align=center;verticalAlign=middle;whiteSpace=wrap;rounded=0;" parent="1" vertex="1">
          <mxGeometry x="-960" y="370" width="190" height="30" as="geometry" />
        </mxCell>
        <mxCell id="0-2StcnEYoLJdeBP_UcM-38" value="" style="shape=image;verticalLabelPosition=bottom;labelBackgroundColor=default;verticalAlign=top;aspect=fixed;imageAspect=0;image=https://4allportal.com/wp-content/uploads/prometheus-550x120-2.png;" parent="1" vertex="1">
          <mxGeometry x="-291.03999999999996" y="382.5" width="252.09" height="55" as="geometry" />
        </mxCell>
        <mxCell id="0-2StcnEYoLJdeBP_UcM-40" value="" style="rounded=0;whiteSpace=wrap;html=1;" parent="1" vertex="1">
          <mxGeometry x="230" y="68.31" width="280" height="147" as="geometry" />
        </mxCell>
        <mxCell id="0-2StcnEYoLJdeBP_UcM-43" value="&lt;span style=&quot;font-size: 18px;&quot;&gt;&lt;b&gt;Data Analysis&lt;/b&gt;&lt;/span&gt;" style="text;html=1;align=center;verticalAlign=middle;whiteSpace=wrap;rounded=0;" parent="1" vertex="1">
          <mxGeometry x="230" y="68.31" width="140" height="30" as="geometry" />
        </mxCell>
        <mxCell id="0-2StcnEYoLJdeBP_UcM-44" value="" style="endArrow=classic;html=1;rounded=0;strokeWidth=2;" parent="1" edge="1">
          <mxGeometry width="50" height="50" relative="1" as="geometry">
            <mxPoint x="90" y="163" as="sourcePoint" />
            <mxPoint x="220" y="162.54000000000002" as="targetPoint" />
          </mxGeometry>
        </mxCell>
        <mxCell id="6mCqm3cFqYDMlTNCP-HP-1" value="" style="shape=image;verticalLabelPosition=bottom;labelBackgroundColor=default;verticalAlign=top;aspect=fixed;imageAspect=0;image=https://warlord0blog.wordpress.com/wp-content/uploads/2021/05/minio_logo.png;" vertex="1" parent="1">
          <mxGeometry x="-530" y="279.17" width="245.44" height="50.83" as="geometry" />
        </mxCell>
        <mxCell id="6mCqm3cFqYDMlTNCP-HP-19" style="edgeStyle=orthogonalEdgeStyle;rounded=0;orthogonalLoop=1;jettySize=auto;html=1;exitX=1;exitY=0.5;exitDx=0;exitDy=0;entryX=0;entryY=0.5;entryDx=0;entryDy=0;endArrow=none;endFill=0;" edge="1" parent="1" source="6mCqm3cFqYDMlTNCP-HP-9" target="6mCqm3cFqYDMlTNCP-HP-18">
          <mxGeometry relative="1" as="geometry" />
        </mxCell>
        <mxCell id="6mCqm3cFqYDMlTNCP-HP-9" value="&lt;b&gt;&lt;font style=&quot;font-size: 18px;&quot;&gt;Bronze&lt;/font&gt;&lt;/b&gt;" style="rounded=1;whiteSpace=wrap;html=1;strokeWidth=2;fillWeight=4;hachureGap=8;hachureAngle=45;fillColor=#f0a30a;sketch=1;strokeColor=#BD7000;fontColor=#000000;" vertex="1" parent="1">
          <mxGeometry x="-680" y="70" width="130" height="76" as="geometry" />
        </mxCell>
        <mxCell id="6mCqm3cFqYDMlTNCP-HP-22" style="edgeStyle=orthogonalEdgeStyle;rounded=0;orthogonalLoop=1;jettySize=auto;html=1;exitX=1;exitY=0.5;exitDx=0;exitDy=0;entryX=0;entryY=0.5;entryDx=0;entryDy=0;endArrow=none;endFill=0;" edge="1" parent="1" source="6mCqm3cFqYDMlTNCP-HP-10" target="6mCqm3cFqYDMlTNCP-HP-21">
          <mxGeometry relative="1" as="geometry" />
        </mxCell>
        <mxCell id="6mCqm3cFqYDMlTNCP-HP-10" value="&lt;span style=&quot;font-size: 18px;&quot;&gt;&lt;b&gt;Silver&lt;/b&gt;&lt;/span&gt;" style="rounded=1;whiteSpace=wrap;html=1;strokeWidth=2;fillWeight=4;hachureGap=8;hachureAngle=45;fillColor=#bac8d3;sketch=1;strokeColor=#23445d;" vertex="1" parent="1">
          <mxGeometry x="-380" y="70" width="130" height="76" as="geometry" />
        </mxCell>
        <mxCell id="6mCqm3cFqYDMlTNCP-HP-11" value="&lt;span style=&quot;font-size: 18px;&quot;&gt;&lt;b&gt;Gold&lt;/b&gt;&lt;/span&gt;" style="rounded=1;whiteSpace=wrap;html=1;strokeWidth=2;fillWeight=4;hachureGap=8;hachureAngle=45;fillColor=#e3c800;sketch=1;strokeColor=#B09500;fontColor=#000000;" vertex="1" parent="1">
          <mxGeometry x="-80" y="70" width="130" height="76" as="geometry" />
        </mxCell>
        <mxCell id="6mCqm3cFqYDMlTNCP-HP-15" value="" style="shape=image;verticalLabelPosition=bottom;labelBackgroundColor=default;verticalAlign=top;aspect=fixed;imageAspect=0;image=https://spark.apache.org/images/delta-lake-logo.png;" vertex="1" parent="1">
          <mxGeometry x="-220" y="245.31000000000006" width="220.19" height="119.38" as="geometry" />
        </mxCell>
        <mxCell id="6mCqm3cFqYDMlTNCP-HP-16" value="" style="shape=image;verticalLabelPosition=bottom;labelBackgroundColor=default;verticalAlign=top;aspect=fixed;imageAspect=0;image=https://cdn.icon-icons.com/icons2/2699/PNG/512/apache_hive_logo_icon_167868.png;" vertex="1" parent="1">
          <mxGeometry x="-498.98" y="140" width="220" height="110" as="geometry" />
        </mxCell>
        <mxCell id="6mCqm3cFqYDMlTNCP-HP-20" style="edgeStyle=orthogonalEdgeStyle;rounded=0;orthogonalLoop=1;jettySize=auto;html=1;exitX=1;exitY=0.5;exitDx=0;exitDy=0;entryX=0;entryY=0.5;entryDx=0;entryDy=0;" edge="1" parent="1" source="6mCqm3cFqYDMlTNCP-HP-18" target="6mCqm3cFqYDMlTNCP-HP-10">
          <mxGeometry relative="1" as="geometry" />
        </mxCell>
        <mxCell id="6mCqm3cFqYDMlTNCP-HP-18" value="" style="shape=image;imageAspect=0;aspect=fixed;verticalLabelPosition=bottom;verticalAlign=top;image=https://images.seeklogo.com/logo-png/43/2/dbt-logo-png_seeklogo-431111.png?v=1957187137577124544;" vertex="1" parent="1">
          <mxGeometry x="-498.98" y="73" width="70" height="70" as="geometry" />
        </mxCell>
        <mxCell id="6mCqm3cFqYDMlTNCP-HP-24" style="edgeStyle=orthogonalEdgeStyle;rounded=0;orthogonalLoop=1;jettySize=auto;html=1;exitX=1;exitY=0.5;exitDx=0;exitDy=0;entryX=0;entryY=0.5;entryDx=0;entryDy=0;" edge="1" parent="1" source="6mCqm3cFqYDMlTNCP-HP-21" target="6mCqm3cFqYDMlTNCP-HP-11">
          <mxGeometry relative="1" as="geometry" />
        </mxCell>
        <mxCell id="6mCqm3cFqYDMlTNCP-HP-21" value="" style="shape=image;imageAspect=0;aspect=fixed;verticalLabelPosition=bottom;verticalAlign=top;image=https://images.seeklogo.com/logo-png/43/2/dbt-logo-png_seeklogo-431111.png?v=1957187137577124544;" vertex="1" parent="1">
          <mxGeometry x="-200" y="73" width="70" height="70" as="geometry" />
        </mxCell>
        <mxCell id="6mCqm3cFqYDMlTNCP-HP-25" value="" style="shape=image;verticalLabelPosition=bottom;labelBackgroundColor=default;verticalAlign=top;aspect=fixed;imageAspect=0;image=https://pragmaticworks.com/hs-fs/hubfs/social-suggested-images/Power-Bi-logo-transparent.png?width=655&amp;height=400&amp;name=Power-Bi-logo-transparent.png;" vertex="1" parent="1">
          <mxGeometry x="246.94" y="119" width="246.12" height="62" as="geometry" />
        </mxCell>
        <mxCell id="6mCqm3cFqYDMlTNCP-HP-37" style="edgeStyle=orthogonalEdgeStyle;rounded=0;orthogonalLoop=1;jettySize=auto;html=1;entryX=0;entryY=0.5;entryDx=0;entryDy=0;strokeWidth=2;" edge="1" parent="1" target="6mCqm3cFqYDMlTNCP-HP-32">
          <mxGeometry relative="1" as="geometry">
            <mxPoint x="-740" y="-250" as="sourcePoint" />
          </mxGeometry>
        </mxCell>
        <mxCell id="6mCqm3cFqYDMlTNCP-HP-28" value="" style="shape=image;verticalLabelPosition=bottom;labelBackgroundColor=default;verticalAlign=top;aspect=fixed;imageAspect=0;image=https://static-00.iconduck.com/assets.00/kafka-icon-2048x935-cvu4503l.png;" vertex="1" parent="1">
          <mxGeometry x="-940" y="-290" width="175.18" height="80" as="geometry" />
        </mxCell>
        <mxCell id="6mCqm3cFqYDMlTNCP-HP-39" style="edgeStyle=orthogonalEdgeStyle;rounded=0;orthogonalLoop=1;jettySize=auto;html=1;exitX=0.5;exitY=1;exitDx=0;exitDy=0;entryX=0;entryY=0.5;entryDx=0;entryDy=0;curved=1;" edge="1" parent="1" source="6mCqm3cFqYDMlTNCP-HP-29" target="6mCqm3cFqYDMlTNCP-HP-8">
          <mxGeometry relative="1" as="geometry">
            <Array as="points">
              <mxPoint x="-81" y="-150" />
              <mxPoint x="-890" y="-150" />
              <mxPoint x="-890" y="150" />
            </Array>
          </mxGeometry>
        </mxCell>
        <mxCell id="6mCqm3cFqYDMlTNCP-HP-29" value="" style="shape=image;imageAspect=0;aspect=fixed;verticalLabelPosition=bottom;verticalAlign=top;image=https://i0.wp.com/blog.dsacademy.com.br/wp-content/uploads/2023/06/Apache-Spark-logo.png?fit=1200%2C623&amp;ssl=1;" vertex="1" parent="1">
          <mxGeometry x="-160" y="-292.5" width="158.89" height="82.5" as="geometry" />
        </mxCell>
        <mxCell id="6mCqm3cFqYDMlTNCP-HP-38" style="edgeStyle=orthogonalEdgeStyle;rounded=0;orthogonalLoop=1;jettySize=auto;html=1;exitX=1;exitY=0.5;exitDx=0;exitDy=0;strokeWidth=2;" edge="1" parent="1" source="6mCqm3cFqYDMlTNCP-HP-32">
          <mxGeometry relative="1" as="geometry">
            <mxPoint x="-180" y="-251" as="targetPoint" />
          </mxGeometry>
        </mxCell>
        <mxCell id="6mCqm3cFqYDMlTNCP-HP-32" value="&lt;span style=&quot;font-size: 18px;&quot;&gt;&lt;b&gt;Streaming Processing&lt;/b&gt;&lt;/span&gt;" style="text;html=1;align=center;verticalAlign=middle;whiteSpace=wrap;rounded=0;" vertex="1" parent="1">
          <mxGeometry x="-550" y="-265" width="140" height="30" as="geometry" />
        </mxCell>
        <mxCell id="6mCqm3cFqYDMlTNCP-HP-40" value="&lt;font style=&quot;font-size: 18px;&quot;&gt;&lt;b&gt;Metadata&lt;/b&gt;&lt;/font&gt;" style="text;html=1;align=center;verticalAlign=middle;whiteSpace=wrap;rounded=0;" vertex="1" parent="1">
          <mxGeometry x="-290" y="200" width="90" height="30" as="geometry" />
        </mxCell>
      </root>
    </mxGraphModel>
  </diagram>
</mxfile>
